<mxfile host="app.diagrams.net" modified="2023-04-05T16:28:25.007Z" agent="Mozilla/5.0 (Windows NT 10.0; Win64; x64; rv:109.0) Gecko/20100101 Firefox/111.0" etag="qOrtqBVfjX82EiIYiteZ" version="21.1.4" type="github">
  <diagram name="Page-1" id="dV5xFpwchkEHvsgp9X35">
    <mxGraphModel dx="1050" dy="566" grid="1" gridSize="10" guides="1" tooltips="1" connect="1" arrows="1" fold="1" page="1" pageScale="1" pageWidth="850" pageHeight="1100" math="0" shadow="0">
      <root>
        <mxCell id="0" />
        <mxCell id="1" parent="0" />
        <mxCell id="B9vzt5XhKqu_cnYE2-GK-1" value="&lt;h3&gt;201&lt;/h3&gt;" style="rounded=0;whiteSpace=wrap;html=1;" vertex="1" parent="1">
          <mxGeometry x="240" y="150" width="120" height="60" as="geometry" />
        </mxCell>
      </root>
    </mxGraphModel>
  </diagram>
</mxfile>
